<?xml version="1.0" standalone="no"?>
<svg xmlns="http://www.w3.org/2000/svg" height="1920pt" preserveAspectRatio="xMidYMid meet" viewBox="0 0 1380 1920" width="1380pt">
  <path d="m7273 19189c-469-28-952-212-1412-537-442-313-980-902-1281-1402-403-672-708-1651-905-2913-59-380-74-518-110-992-170-2258-186-2487-175-2500 6-8 51-40 98-73 366-249 1180-583 2432-997 195-65 360-123 367-129 6-6 134-229 283-496 150-267 328-584 396-705s126-224 128-230c2-5 5-8 8-5 8 8 418 1823 418 1848 0 13-18 119-40 235-201 1049-300 1927-300 2652 0 428 26 730 90 1041 81 390 165 646 358 1086 122 277 403 743 1095 1812 115 177 222 356 253 420 165 349 217 564 180 756-100 529-476 876-1124 1039-182 46-339 71-607 94-16 2-85 0-152-4zm392-5499c-38-5-111-16-162-25l-92-17-5-41c-17-126-48-627-53-852-15-671 65-1375 233-2050 60-240 84-319 94-309 8 9 540 759 552 780 4 5-6 59-23 120-68 253-128 591-150 838-16 185-7 520 20 667 27 155 74 298 114 350 135 177 304 36 501-416 79-182 77-178 70-120-11 96-45 251-80 365-68 220-157 377-283 500-149 145-310 209-536 215-71 2-161 0-200-5zm-5805-297c-25-1-97-10-160-19-625-86-964-377-1047-898-19-122-13-406 11-561 24-148 24-148 58-48 230 686 978 438 2255-748l182-169 5 33c3 17 24 244 46 502 103 1196 120 1392 124 1414 3 19-10 33-80 85-283 206-593 357-825 401-60 11-139 15-303 13-121-1-241-3-266-5zm7430-1830c-302-48-531-156-765-361-417-367-763-1057-1005-2009-34-133-119-503-115-503 1 0 55 54 121 121 227 230 440 389 687 510 738 361 1576 222 2516-418 320-218 530-389 766-627 775-779 1303-1867 1600-3301 51-244 117-633 144-854 11-84 21-155 23-157 6-5 76 542 102 796 114 1089 112 2044-5 2865-314 2206-1441 3500-3384 3886-217 43-357 59-510 58-82-1-161-4-175-6zm-7470-304c-457-52-849-419-1169-1091-166-349-320-801-444-1303-181-731-201-863-201-1300 0-263 9-401 44-645 124-863 532-1924 1026-2672 333-503 651-843 1233-1317 412-335 1318-954 2461-1681 607-386 1953-1220 1993-1235 15-6 17 0 17 47 0 247-70 542-173 730-98 180-157 250-471 558-728 713-866 862-1028 1110-248 379-386 820-472 1510-40 320-166 1501-196 1839-47 528-30 1100 45 1506 125 674 445 1204 1136 1880 102 99 231 220 287 270l102 90-67 22c-38 11-169 54-293 93-1010 323-2028 784-3014 1365-223 131-284 159-423 194-70 18-260 43-302 40-9-1-50-5-91-10zm4135-1936c-529-400-905-866-1133-1403-60-141-126-341-167-502l-35-142 72-105c697-1020 1551-2179 2092-2840 384-470 639-750 860-946 1483-1316 2758-2073 3861-2294 219-44 341-55 605-55 287-1 400 12 625 69 185 47 307 93 490 185 245 122 299 172 299 275 0 62-31 119-101 186-26 26-183 138-348 249-1772 1199-3085 2218-3896 3022-667 660-1178 1296-1828 2273-384 577-843 1330-1196 1962-44 79-84 142-90 142-5 0-55-34-110-76zm2710-29c-245-47-487-149-675-282-114-80-293-255-381-372-176-233-286-485-305-700l-6-65 152-250c500-821 1075-1579 1630-2149 479-491 1427-1310 2555-2207 685-545 2001-1559 2023-1559 17 0 83 81 102 125 33 77 44 193 31 313-26 231-7 192-406 842-534 871-890 1404-1324 1980-228 302-200 270-726 831-817 869-1321 1433-1393 1559-14 25-65 101-113 170-238 340-535 836-859 1430-67 124-138 253-157 288-38 70-35 69-148 46z" transform="matrix(.1 0 0 -.1 0 1920)" fill="#4BB7EE" stroke="none" stroke-width="2" vector-effect="non-scaling-stroke"/>
</svg>
